%
M48
M72
T01C0.0197
T02C0.0236
T03C0.0250
T04C0.0787
%
T01
X4628Y2462
X3742Y1872
X3053Y1773
X2462Y2069
X1872Y2561
T02
X1281Y9155
X5021Y9155
X5858Y9155
T03
X2250Y12055
X2250Y12555
X2750Y12555
X2750Y12055
X3250Y12055
X3250Y12555
X3750Y12555
X3750Y12055
X4250Y12055
X4250Y12555
T04
X1675Y10927
X4824Y10927
M30
